<?xml version="1.0" encoding="UTF-8" standalone="no"?>
<svg
   xmlns:dc="http://purl.org/dc/elements/1.1/"
   xmlns:cc="http://creativecommons.org/ns#"
   xmlns:rdf="http://www.w3.org/1999/02/22-rdf-syntax-ns#"
   xmlns:svg="http://www.w3.org/2000/svg"
   xmlns="http://www.w3.org/2000/svg"
   viewBox="0 0 1280 720"
   height="720"
   width="1280"
   xml:space="preserve"
   id="svg2"
   version="1.1"><metadata
     id="metadata8"><rdf:RDF><cc:Work
         rdf:about=""><dc:format>image/svg+xml</dc:format><dc:type
           rdf:resource="http://purl.org/dc/dcmitype/StillImage" /></cc:Work></rdf:RDF></metadata><defs
     id="defs6"><clipPath
       id="clipPath18"
       clipPathUnits="userSpaceOnUse"><path
         style="clip-rule:evenodd"
         id="path16"
         d="M 0,1.2207e-4 H 960 V 540.00012 H 0 Z" /></clipPath><clipPath
       id="clipPath28"
       clipPathUnits="userSpaceOnUse"><path
         style="clip-rule:evenodd"
         id="path26"
         d="M 1.4305e-5,0 H 960.00001 V 540 H 1.4305e-5 Z" /></clipPath><clipPath
       id="clipPath40"
       clipPathUnits="userSpaceOnUse"><path
         style="clip-rule:evenodd"
         id="path38"
         d="M 1.4305e-5,0 H 960.00001 V 540 H 1.4305e-5 Z" /></clipPath><clipPath
       id="clipPath52"
       clipPathUnits="userSpaceOnUse"><path
         style="clip-rule:evenodd"
         id="path50"
         d="M 1.4305e-5,0 H 960.00001 V 540 H 1.4305e-5 Z" /></clipPath><clipPath
       id="clipPath64"
       clipPathUnits="userSpaceOnUse"><path
         style="clip-rule:evenodd"
         id="path62"
         d="M 1.4305e-5,0 H 960.00001 V 540 H 1.4305e-5 Z" /></clipPath><clipPath
       id="clipPath76"
       clipPathUnits="userSpaceOnUse"><path
         style="clip-rule:evenodd"
         id="path74"
         d="M 1.4305e-5,0 H 960.00001 V 540 H 1.4305e-5 Z" /></clipPath></defs><g
     transform="matrix(1.3333333,0,0,-1.3333333,0,720)"
     id="g10"><g
       id="g12"><g
         clip-path="url(#clipPath18)"
         id="g14"><path
           id="path20"
           style="fill:#ffffff;fill-opacity:1;fill-rule:evenodd;stroke:none"
           d="M 0,6.1035e-5 H 960 V 540.00006 H 0 Z" /></g></g><g
       id="g22"><g
         clip-path="url(#clipPath28)"
         id="g24"><text
           id="text32"
           style="font-variant:normal;font-weight:900;font-size:60.02399826px;font-family:Arial;-inkscape-font-specification:Arial-Black;writing-mode:lr-tb;fill:#0c2d57;fill-opacity:1;fill-rule:nonzero;stroke:none"
           transform="matrix(1,0,0,-1,127.22,347.83)"><tspan
             id="tspan30"
             y="0"
             x="0 43.33733 86.67466 130.01198 173.34932 193.51738 216.86671 266.8667 308.22324 358.22324">STEP INTO </tspan></text>
</g></g><g
       id="g34"><g
         clip-path="url(#clipPath40)"
         id="g36"><text
           id="text44"
           style="font-variant:normal;font-weight:900;font-size:60px;font-family:Arial;-inkscape-font-specification:Arial-Black;writing-mode:lr-tb;fill:#0c2d57;fill-opacity:1;fill-rule:nonzero;stroke:none"
           transform="matrix(1,0,0,-1,127.22,283.01)"><tspan
             id="tspan42"
             y="0"
             x="0 46.68 90 130.02 173.34 223.32001 270 293.34 340.01999 390">DELSUVIDHA</tspan></text>
</g></g><g
       id="g46"><g
         clip-path="url(#clipPath52)"
         id="g48"><text
           id="text56"
           style="font-variant:normal;font-weight:normal;font-size:24px;font-family:ArialMT;-inkscape-font-specification:ArialMT;writing-mode:lr-tb;fill:#fc6736;fill-opacity:1;fill-rule:nonzero;stroke:none"
           transform="matrix(1,0,0,-1,127.22,232.2)"><tspan
             id="tspan54"
             y="0"
             x="0 22.656 36 49.344002 57.335999 70.68 77.351997 93.360001 106.704 120.048 132.048 145.392 152.064 157.392 170.64 183.98399 190.896 210.888 224.23199 237.576 244.248 256.24799 262.92001 269.59201 282.936 296.28 309.62399 321.62399 334.96799 341.64001 346.96799 360.216 373.56 380.23199">Where Education Meets Innovation. </tspan></text>
</g></g><g
       id="g58"><g
         clip-path="url(#clipPath64)"
         id="g60"><text
           id="text68"
           style="font-variant:normal;font-weight:normal;font-size:24.02400017px;font-family:ArialMT;-inkscape-font-specification:ArialMT;writing-mode:lr-tb;fill:#fc6736;fill-opacity:1;fill-rule:nonzero;stroke:none"
           transform="matrix(1,0,0,-1,127.22,206.28)"><tspan
             id="tspan66"
             y="0"
             x="0 16.024008 27.843817 41.20116 54.486431 62.486423 67.819756 81.177094 94.438347 106.45034 119.80769 126.82269 133.50137 146.85872 160.21605 166.89473 181.57339 194.93074 201.60941 214.96675 222.96675 236.32408 242.85861 256.21597 262.89462 269.50122 285.52524 297.46518 310.82251 324.10779 337.46512 342.70236">Experience the Future of School </tspan></text>
</g></g><g
       id="g70"><g
         clip-path="url(#clipPath76)"
         id="g72"><text
           id="text80"
           style="font-variant:normal;font-weight:normal;font-size:24px;font-family:ArialMT;-inkscape-font-specification:ArialMT;writing-mode:lr-tb;fill:#fc6736;fill-opacity:1;fill-rule:nonzero;stroke:none"
           transform="matrix(1,0,0,-1,127.22,180.34)"><tspan
             id="tspan78"
             y="0"
             x="0 19.992001 33.335999 46.68 60.023998 73.367996 86.711998 106.704 120.048 133.392 140.064 146.73599 153.45599 170.784 176.01601 189.36 194.616 201.28799 206.616 218.616 231.96001 245.304 252.312 258.98401 272.328 280.36801 287.04001 302.92801 316.272 328.272 340.272 353.616 365.616 377.616">Management, Digitized for Success!</tspan></text>
</g></g></g></svg>