<?xml version="1.0" standalone="no"?>
<!DOCTYPE svg PUBLIC "-//W3C//DTD SVG 20010904//EN"
 "http://www.w3.org/TR/2001/REC-SVG-20010904/DTD/svg10.dtd">
<svg version="1.0" xmlns="http://www.w3.org/2000/svg"
 width="512.000000pt" height="512.000000pt" viewBox="0 0 512.000000 512.000000"
 preserveAspectRatio="xMidYMid meet">

<g transform="translate(0.000000,512.000000) scale(0.100000,-0.100000)"
fill="#000000" stroke="none">
<path d="M256 4765 c-22 -8 -51 -22 -65 -33 -39 -29 -89 -98 -101 -140 -14
-52 -14 -3097 1 -3155 15 -63 68 -128 130 -162 l54 -30 891 -5 892 -5 -93
-240 -92 -240 -294 -5 c-162 -3 -302 -9 -311 -14 -30 -14 -40 -74 -37 -220 4
-131 5 -139 28 -157 23 -18 58 -19 1301 -19 1243 0 1278 1 1301 19 23 18 24
26 28 157 3 146 -7 206 -37 220 -9 5 -149 11 -311 14 l-294 5 -92 240 -93 240
892 5 891 5 54 30 c62 34 115 99 130 162 8 29 11 531 11 1581 0 1707 5 1588
-67 1671 -19 23 -54 52 -77 64 l-41 22 -2280 2 c-1940 2 -2286 0 -2319 -12z
m2234 -349 l0 -223 -52 -7 c-266 -35 -526 -220 -650 -462 l-42 -82 -32 42
c-89 116 -219 166 -439 166 -138 0 -221 -15 -302 -55 -134 -66 -210 -180 -221
-332 l-5 -73 -264 0 -263 0 2 589 3 589 25 27 c14 15 34 31 45 35 11 5 509 9
1108 9 l1087 1 0 -224z m2372 186 l33 -32 3 -590 2 -590 -265 0 -265 0 0 53
c0 107 -51 219 -132 293 -87 78 -209 114 -393 114 -220 0 -350 -50 -439 -166
l-32 -41 -44 84 c-97 186 -255 328 -454 407 -68 27 -181 55 -223 56 l-23 0 0
225 0 225 1100 -2 1100 -3 32 -33z m-2134 -568 c41 -9 113 -36 165 -61 74 -38
108 -63 177 -132 144 -145 207 -286 217 -482 7 -135 -13 -231 -72 -354 -73
-151 -191 -269 -338 -339 -112 -54 -186 -70 -317 -70 -131 0 -205 16 -316 69
-149 72 -266 189 -339 340 -59 123 -79 219 -72 354 10 196 73 338 217 481 183
184 412 249 678 194z m-1236 -351 c100 -45 157 -127 161 -230 l2 -58 -382 -3
-383 -2 0 46 c0 69 19 120 63 170 76 86 142 105 353 100 113 -3 150 -8 186
-23z m2573 -2 c100 -44 165 -138 165 -239 l0 -52 -382 2 -383 3 -3 23 c-2 12
2 47 8 77 21 103 114 188 222 205 29 5 114 7 188 6 114 -3 144 -7 185 -25z
m-2361 -518 c71 -359 354 -637 709 -697 l72 -12 3 -222 2 -222 -343 0 -343 0
-11 85 c-14 105 -56 188 -125 250 -98 88 -193 115 -402 115 -210 0 -309 -34
-407 -137 -67 -70 -99 -143 -106 -238 l-6 -75 -263 0 -264 0 0 620 0 620 733
0 734 0 17 -87z m3196 -533 l0 -620 -264 0 -263 0 -6 75 c-7 95 -39 168 -106
238 -105 111 -205 141 -446 134 -176 -5 -221 -15 -310 -72 -102 -65 -160 -159
-178 -291 l-11 -84 -343 0 -343 0 2 222 3 222 72 12 c355 60 639 338 709 697
l17 87 734 0 733 0 0 -620z m-3403 -339 c96 -42 163 -145 163 -248 l0 -33
-385 0 -385 0 0 43 c0 122 85 225 215 258 17 4 100 7 185 6 137 -3 161 -6 207
-26z m2577 -1 c97 -47 156 -136 156 -237 l0 -43 -385 0 -385 0 0 33 c0 94 61
197 142 238 63 32 107 38 268 35 140 -2 160 -4 204 -26z m826 -617 c0 -181 -2
-201 -20 -231 -41 -67 135 -62 -2320 -62 -2455 0 -2279 -5 -2320 62 -18 30
-20 50 -20 231 l0 197 2340 0 2340 0 0 -197z m-1895 -678 l92 -240 -268 -3
c-148 -1 -390 -1 -538 0 l-268 3 86 225 c48 124 90 233 94 243 6 16 30 17 358
15 l351 -3 93 -240z m743 -452 l3 -63 -1191 0 -1190 0 0 58 c0 32 3 62 7 65 3
4 538 6 1187 5 l1181 -3 3 -62z"/>
<path d="M1229 4439 c-59 -9 -95 -28 -140 -76 -60 -62 -73 -97 -73 -188 1
-233 183 -378 362 -289 92 46 153 159 153 288 0 81 -16 128 -63 181 -56 65
-149 97 -239 84z m127 -173 c34 -34 38 -48 34 -116 -6 -112 -97 -184 -168
-134 -56 39 -86 156 -57 218 22 45 56 65 114 66 36 0 49 -6 77 -34z"/>
<path d="M3805 4439 c-58 -9 -89 -24 -134 -64 -58 -53 -83 -112 -82 -200 1
-229 179 -374 357 -291 99 46 157 153 158 291 0 58 -5 89 -18 115 -23 44 -82
107 -119 127 -39 20 -113 30 -162 22z m104 -154 c62 -32 76 -127 31 -214 -25
-49 -55 -71 -98 -71 -56 0 -108 69 -112 150 -4 68 0 82 34 116 28 28 42 34 75
34 23 0 55 -7 70 -15z"/>
<path d="M2025 3686 l-25 -25 0 -309 c0 -298 1 -310 21 -336 l20 -26 221 0
221 0 23 -25 c15 -16 34 -25 54 -25 20 0 39 9 54 25 l23 25 221 0 221 0 20 26
c20 26 21 38 21 336 l0 309 -25 25 -25 25 -243 -5 c-133 -3 -253 -5 -267 -5
-14 0 -134 2 -267 5 l-243 5 -25 -25z m465 -336 l0 -220 -175 0 -175 0 0 220
0 220 175 0 175 0 0 -220z m490 0 l0 -220 -175 0 -175 0 0 220 0 220 175 0
175 0 0 -220z"/>
<path d="M1213 3050 c-127 -30 -213 -157 -199 -292 16 -158 108 -270 234 -285
154 -18 282 123 283 314 0 55 -5 85 -21 117 -54 112 -181 174 -297 146z m111
-145 c62 -29 84 -106 55 -193 -17 -53 -36 -78 -69 -92 -75 -31 -141 31 -155
146 -8 62 16 112 65 136 43 22 63 22 104 3z"/>
<path d="M3762 3042 c-62 -23 -123 -78 -153 -139 -28 -59 -28 -169 2 -249 29
-78 106 -157 169 -174 162 -44 306 79 326 278 21 196 -164 348 -344 284z m155
-147 c67 -44 65 -178 -4 -257 -34 -39 -116 -30 -146 16 -39 59 -50 153 -24
203 31 59 114 77 174 38z"/>
<path d="M2350 1670 c-25 -25 -26 -61 -1 -91 19 -24 22 -24 211 -24 189 0 192
0 211 24 25 30 24 66 -1 91 -19 19 -33 20 -210 20 -177 0 -191 -1 -210 -20z"/>
</g>
</svg>
