<?xml version="1.0" standalone="no"?>
<!DOCTYPE svg PUBLIC "-//W3C//DTD SVG 20010904//EN"
 "http://www.w3.org/TR/2001/REC-SVG-20010904/DTD/svg10.dtd">
<svg version="1.0" xmlns="http://www.w3.org/2000/svg"
 width="4096.000000pt" height="1024.000000pt" viewBox="0 0 4096.000000 1024.000000"
 preserveAspectRatio="xMidYMid meet">

<g transform="translate(0.000000,1024.000000) scale(0.100000,-0.100000)"
fill="#000000" stroke="none">
<path d="M4830 10234 c-25 -2 -103 -9 -175 -14 -175 -14 -375 -44 -580 -85
-2004 -406 -3584 -1986 -3990 -3990 -80 -395 -80 -396 -80 -1025 0 -629 0
-630 80 -1025 406 -2004 1986 -3584 3990 -3990 378 -76 616 -100 1025 -100
320 0 458 9 715 46 2262 322 4032 2092 4354 4354 37 257 46 395 46 715 0 320
-9 458 -46 715 -289 2029 -1748 3684 -3724 4224 -265 73 -597 133 -885 161
-114 11 -644 21 -730 14z m480 -2614 c686 -63 1245 -308 1647 -724 261 -269
441 -583 548 -955 191 -667 137 -1442 -141 -2021 -112 -232 -228 -401 -399
-578 -122 -127 -218 -208 -361 -304 -387 -261 -874 -409 -1439 -438 -99 -5
-658 -10 -1242 -10 l-1063 0 0 2520 0 2520 1168 0 c729 0 1210 -4 1282 -10z"/>
<path d="M4230 5114 l0 -1356 478 5 c515 4 548 7 730 68 295 98 518 292 659
574 157 313 195 767 97 1155 -113 448 -415 757 -844 864 -158 39 -257 46 -707
46 l-413 0 0 -1356z"/>
<path d="M27780 8925 c-306 -56 -604 -249 -778 -504 -151 -221 -216 -429 -216
-696 0 -167 15 -260 66 -405 126 -356 415 -638 773 -755 242 -78 548 -74 787
11 230 82 450 251 587 449 502 726 105 1719 -758 1895 -118 24 -342 26 -461 5z
m385 -501 c178 -37 355 -165 454 -328 18 -31 47 -95 64 -143 30 -83 32 -97 32
-228 0 -131 -2 -145 -32 -228 -68 -192 -190 -330 -371 -421 -128 -65 -329 -86
-475 -52 -252 59 -448 247 -528 506 -19 61 -24 98 -24 195 0 97 5 134 24 195
64 209 200 369 386 456 154 71 291 85 470 48z"/>
<path d="M14650 5440 l0 -2560 480 0 480 0 0 2560 0 2560 -480 0 -480 0 0
-2560z"/>
<path d="M31730 6884 l0 -1116 -67 62 c-227 208 -517 310 -880 310 -311 0
-584 -83 -847 -257 -137 -90 -337 -291 -428 -428 -350 -529 -392 -1193 -111
-1760 80 -160 167 -280 308 -421 330 -331 721 -480 1189 -452 313 18 578 127
784 321 l52 50 0 -157 0 -156 480 0 480 0 0 2560 0 2560 -480 0 -480 0 0
-1116z m-554 -1624 c288 -73 511 -296 584 -584 28 -109 28 -283 0 -392 -118
-461 -611 -718 -1063 -554 -244 89 -431 299 -498 560 -21 81 -18 317 5 399 78
283 299 503 574 571 110 27 292 27 398 0z"/>
<path d="M33660 5440 l0 -2560 485 0 485 0 0 948 c0 543 5 979 10 1022 27 209
193 378 420 426 98 21 251 14 334 -15 165 -58 279 -192 305 -361 7 -42 11
-417 11 -1042 l0 -978 486 0 485 0 -4 1097 c-4 1196 -2 1151 -63 1350 -31 105
-119 280 -183 364 -70 92 -188 201 -289 266 -98 65 -262 134 -372 158 -113 25
-364 31 -475 12 -227 -40 -414 -134 -588 -297 l-77 -72 0 1121 0 1121 -485 0
-485 0 0 -2560z"/>
<path d="M17720 7729 c-245 -31 -490 -117 -671 -234 -374 -242 -577 -608 -596
-1075 -16 -391 96 -702 340 -944 128 -127 252 -211 462 -315 182 -90 241 -114
640 -262 618 -228 798 -389 783 -699 -4 -82 -10 -108 -36 -165 -61 -128 -175
-214 -357 -267 -70 -20 -102 -23 -250 -23 -191 0 -264 13 -410 70 -221 86
-404 253 -525 478 -23 42 -44 77 -47 77 -14 0 -803 -496 -803 -505 0 -15 92
-167 157 -258 73 -102 262 -294 371 -376 251 -189 517 -308 838 -375 126 -27
246 -37 414 -37 397 0 741 99 1042 297 107 71 311 279 377 387 200 325 254
727 151 1132 -58 231 -157 403 -329 575 -217 216 -450 340 -1058 564 -403 148
-532 214 -649 330 -82 83 -121 156 -133 251 -31 257 103 444 356 501 100 22
286 15 391 -15 157 -45 327 -150 479 -295 l89 -84 327 305 328 304 -52 60
c-68 79 -212 202 -329 281 -246 166 -556 283 -845 317 -103 13 -359 12 -455 0z"/>
<path d="M12120 6144 c-420 -40 -723 -159 -1007 -395 -504 -422 -695 -1173
-472 -1864 41 -127 147 -335 223 -435 224 -299 559 -502 964 -585 312 -65 665
-62 935 6 351 89 670 294 868 559 69 93 162 252 151 261 -4 4 -180 78 -391
165 -248 101 -386 153 -389 145 -10 -30 -91 -140 -138 -187 -96 -95 -204 -156
-349 -195 -118 -32 -329 -33 -440 -1 -289 83 -481 311 -539 640 l-5 32 1174 0
c830 0 1176 3 1180 11 15 23 8 393 -9 499 -100 620 -453 1062 -1003 1253 -216
76 -521 112 -753 91z m334 -774 c197 -50 343 -187 425 -397 l21 -53 -656 0
-655 0 7 23 c13 42 56 122 100 184 84 118 211 205 356 243 104 27 297 27 402
0z"/>
<path d="M38685 6126 c-500 -82 -922 -398 -1155 -864 -62 -123 -131 -330 -156
-467 -15 -78 -19 -148 -19 -315 0 -252 13 -341 80 -547 120 -366 343 -662 650
-866 185 -122 365 -193 590 -232 106 -18 344 -21 459 -5 266 38 505 147 674
309 l62 60 0 -160 0 -159 485 0 485 0 0 1600 0 1600 -485 0 -485 0 0 -160 0
-159 -58 55 c-161 152 -342 245 -577 296 -117 26 -431 34 -550 14z m607 -861
c191 -40 377 -167 486 -330 162 -241 185 -546 62 -801 -143 -297 -446 -472
-778 -451 -123 8 -195 27 -307 82 -207 101 -355 282 -416 511 -30 111 -30 297
0 409 77 288 288 500 571 574 92 24 283 27 382 6z"/>
<path d="M20240 5098 c0 -980 5 -1157 35 -1302 97 -470 413 -788 910 -916 284
-73 676 -83 963 -24 601 123 962 495 1031 1059 7 60 11 435 11 1128 l0 1037
-485 0 -485 0 -2 -997 -3 -998 -23 -64 c-76 -210 -257 -340 -474 -341 -226 0
-405 132 -479 355 l-24 70 -3 988 -3 987 -484 0 -485 0 0 -982z"/>
<path d="M23570 6077 c0 -1 287 -720 638 -1597 l638 -1595 455 -3 455 -2 57
142 c31 79 322 798 646 1598 l589 1455 -516 3 c-283 1 -517 1 -518 -1 -2 -2
-162 -486 -356 -1075 -193 -590 -355 -1069 -359 -1065 -5 7 -618 1879 -680
2081 l-20 62 -514 0 c-283 0 -515 -1 -515 -3z"/>
<path d="M27500 4480 l0 -1600 485 0 485 0 0 1600 0 1600 -485 0 -485 0 0
-1600z"/>
</g>
</svg>
