<?xml version="1.0" encoding="utf-8"?>
<svg viewBox="0 0 500 500" xmlns="http://www.w3.org/2000/svg">
  <g transform="matrix(0.512912929058075, 0, 0, 0.512912929058075, 141.88755798339844, 150.67636108398432)">
    <g transform="matrix(1, 0, 0, 1, -695.125671, 17.558987)">
      <path d="M 1267.698 121.951 C 1266.578 127.841 1265.234 133.671 1263.668 139.441 C 1263.498 140.111 1263.308 140.771 1263.118 141.441 L 1241.328 141.441 C 1237.464 141.445 1234.332 144.577 1234.328 148.441 L 1234.328 210.561 C 1233.668 211.791 1232.998 213.011 1232.328 214.231 C 1228.868 220.531 1225.268 226.761 1221.588 232.911 C 1161.581 332.867 1077.888 416.512 977.898 476.461 L 983.818 463.101 C 981.648 462.951 979.468 462.801 977.298 462.651 C 930.048 459.421 882.638 455.841 836.498 445.221 C 788.228 434.111 741.008 414.841 703.178 382.891 C 665.338 350.931 637.598 305.291 633.748 255.911 C 632.464 238.94 634.18 221.876 638.818 205.501 C 647.688 173.981 667.068 145.621 695.028 128.841 C 738.948 102.491 796.238 107.861 842.538 129.781 C 888.828 151.691 926.508 187.961 963.298 223.601 C 926.153 159.904 874.435 105.921 812.388 66.081 C 791.828 52.921 770.008 41.201 752.528 24.151 C 735.058 7.111 722.168 -16.779 725.258 -40.989 C 728.768 -68.449 751.258 -89.289 773.788 -105.359 C 782.788 -111.779 792.078 -117.869 801.658 -123.469 C 828.688 -139.309 857.928 -151.259 888.808 -155.689 C 930.638 -161.699 975.818 -152.579 1007.888 -125.059 C 1044.018 -94.049 1058.838 -44.039 1057.428 3.801 C 1079.688 -28.559 1114.018 -53.329 1152.788 -54.379 C 1193.038 -55.459 1231.298 -30.029 1251.458 4.831 C 1271.608 39.681 1275.228 82.401 1267.698 121.951 Z" style="fill: rgb(90, 255, 186);"/>
      <path d="M 1013.04 256.346 C 1036.614 254.27 1058.391 251.844 1081.236 245.38 C 1103.379 239.114 1124.687 228.625 1140.45 211.498 C 1157.405 193.076 1166.557 169.152 1173.015 145.337 C 1176.615 132.059 1179.573 118.595 1182.365 105.127 C 1185.393 90.514 1188.084 75.836 1190.438 61.093 C 1195.122 31.748 1198.467 2.23 1200.471 -27.46 C 1200.713 -31.064 1200.935 -34.67 1201.137 -38.276 C 1201.262 -40.501 1197.801 -40.494 1197.677 -38.276 C 1196.03 -9.01 1193.068 20.143 1188.792 49.181 C 1184.571 77.711 1179.171 106.118 1172.319 134.137 C 1166.515 157.873 1159 181.98 1144.113 201.739 C 1130.154 220.268 1109.992 232.377 1088.221 239.617 C 1066.068 246.983 1042.711 249.925 1019.562 252.112 C 1016.722 252.38 1015.881 252.636 1013.04 252.886 C 1010.839 253.08 1010.818 256.542 1013.04 256.346 Z" fill="#fff"/>
      <path d="M 640.815 208.054 C 670.559 209.703 700 214.891 728.516 223.508 C 757.044 232.107 784.459 244.04 810.192 259.059 C 835.057 273.584 858.14 290.964 878.972 310.845 C 899.19 330.152 917.209 351.637 932.699 374.907 C 948.261 398.237 961.157 423.237 971.146 449.44 C 972.364 452.647 973.537 455.871 974.666 459.111 C 975.395 461.2 978.739 460.301 978.002 458.191 C 968.657 431.434 956.337 405.811 941.273 381.804 C 926.213 357.794 908.539 335.528 888.573 315.412 C 868.288 294.985 845.711 276.968 821.293 261.72 C 770.022 229.783 711.906 210.462 651.718 205.345 C 648.088 205.04 644.453 204.79 640.815 204.594 C 638.59 204.472 638.597 207.932 640.815 208.054 Z" fill="#fff"/>
      <path d="M 802.593 -119.413 C 821.61 -113.365 839.636 -104.556 856.094 -93.269 C 872.911 -81.657 888.248 -68.036 901.766 -52.709 C 916.011 -36.585 928.676 -19.131 939.586 -0.588 C 951.158 18.992 961.211 39.43 969.656 60.548 C 978.352 82.228 985.666 104.438 991.554 127.043 C 997.539 149.916 1002.215 173.112 1005.557 196.518 C 1008.882 219.675 1010.894 243.002 1011.584 266.387 C 1012.28 288.748 1011.619 311.131 1009.605 333.412 C 1007.763 354.199 1004.4 374.823 999.542 395.118 C 995.227 413.448 989.147 431.317 981.387 448.474 C 979.589 452.368 977.682 456.208 975.665 459.995 C 974.618 461.96 977.604 463.71 978.652 461.741 C 987.228 445.353 994.077 428.117 999.086 410.312 C 1004.707 390.491 1008.781 370.264 1011.272 349.813 C 1014.033 327.624 1015.378 305.283 1015.298 282.923 C 1015.248 259.433 1013.85 235.965 1011.11 212.635 C 1008.369 189.014 1004.299 165.567 998.92 142.403 C 993.554 119.202 986.747 96.358 978.539 74.004 C 970.628 52.364 961.156 31.327 950.197 11.059 C 939.76 -8.282 927.597 -26.64 913.856 -43.792 C 900.806 -60.123 885.908 -74.887 869.46 -87.788 C 853.599 -100.191 836.072 -110.301 817.394 -117.821 C 812.83 -119.638 808.203 -121.281 803.512 -122.75 C 801.383 -123.42 800.472 -120.08 802.593 -119.413 Z" style="fill: rgb(245, 255, 243);"/>
      <ellipse cx="1007.828" cy="472.441" rx="247.5" ry="10" fill="#e6e6e6"/>
    </g>
    <g transform="matrix(1, 0, 0, 1, -476.516022, 65.45829)">
      <rect style="stroke: rgba(255, 255, 255, 0); paint-order: fill; fill: rgb(255, 255, 255);" x="253.303" y="114.148" width="373" height="246" rx="20" ry="20"/>
      <g style="" transform="matrix(-1, 0, 0, 1, 883.876099, 0)">
        <path d="M 599.417 153.925 L 543.417 153.925 C 538.725 153.93 534.923 157.733 534.917 162.425 L 534.917 218.425 C 534.923 223.117 538.725 226.919 543.417 226.925 L 599.417 226.925 C 604.109 226.919 607.911 223.117 607.917 218.425 L 607.917 162.425 C 607.911 157.733 604.109 153.93 599.417 153.925 Z" fill="#6c63ff" style="transform-box: fill-box; transform-origin: 50% 50%;" transform="matrix(-1, 0, 0, -1, -0.000105, 0.00005)"/>
        <path d="M 600.681 273.435 L 282.681 273.435 C 277.677 273.435 274.55 278.852 277.052 283.185 C 278.213 285.196 280.359 286.435 282.681 286.435 L 600.681 286.435 C 605.685 286.435 608.812 281.019 606.31 276.685 C 605.149 274.674 603.003 273.435 600.681 273.435 Z" fill="#ccc" style="transform-box: fill-box; transform-origin: 50% 50%;" transform="matrix(-1, 0, 0, -1, -0.000094, 0.000032)"/>
        <path d="M 600.468 241.935 L 282.468 241.935 C 277.465 241.935 274.337 247.352 276.839 251.685 C 278 253.696 280.146 254.935 282.468 254.935 L 600.468 254.935 C 605.472 254.935 608.599 249.519 606.098 245.185 C 604.936 243.174 602.791 241.935 600.468 241.935 Z" fill="#ccc" style="transform-box: fill-box; transform-origin: 50% 50%;" transform="matrix(-1, 0, 0, -1, 0.000146, 0.00006)"/>
        <path d="M 486.468 198.925 L 439.468 198.925 C 434.465 198.925 431.337 204.342 433.839 208.675 C 435 210.686 437.146 211.925 439.468 211.925 L 486.468 211.925 C 491.472 211.925 494.599 206.508 492.098 202.175 C 490.936 200.164 488.791 198.925 486.468 198.925 Z" fill="#ccc" style="transform-box: fill-box; transform-origin: 50% 50%;" transform="matrix(-1, 0, 0, -1, 0.000112, -0.000007)"/>
        <path d="M 486.468 166.935 L 282.468 166.935 C 277.465 166.935 274.337 172.352 276.839 176.685 C 278 178.696 280.146 179.935 282.468 179.935 L 486.468 179.935 C 491.472 179.935 494.599 174.519 492.098 170.185 C 490.936 168.174 488.791 166.935 486.468 166.935 Z" fill="#ccc" style="transform-box: fill-box; transform-origin: 50% 50%;" transform="matrix(-1, 0, 0, -1, 0.000019, -0.000051)"/>
        <path d="M 600.681 305.435 L 447.468 305.435 C 442.464 305.435 439.337 310.852 441.839 315.185 C 443 317.196 445.146 318.435 447.468 318.435 L 600.681 318.435 C 605.685 318.435 608.812 313.019 606.311 308.685 C 605.149 306.674 603.004 305.435 600.681 305.435 Z" fill="#ccc" style="transform-box: fill-box; transform-origin: 50% 50%;" transform="matrix(-1, 0, 0, -1, 0.000022, -0.000055)"/>
      </g>
    </g>
    <g transform="matrix(-0.668142, 0, 0, 0.668142, 87.770836, 674.431946)" style="transform-origin: 448.686px -377.932px;">
      <path d="M 548.466 -73.356 L 348.906 -73.356 C 322.904 -73.356 301.749 -94.511 301.749 -120.513 L 301.749 -635.351 C 301.749 -661.354 322.904 -682.508 348.906 -682.508 L 548.466 -682.508 C 574.468 -682.508 595.623 -661.354 595.623 -635.351 L 595.623 -120.513 C 595.623 -94.511 574.468 -73.356 548.466 -73.356 L 548.466 -73.356 Z" fill="#2f2e41" stroke-width="0"/>
      <path d="M 548.669 -86.083 L 348.703 -86.083 C 329.192 -86.083 313.319 -101.956 313.319 -121.467 L 313.319 -637.29 C 313.319 -656.8 329.192 -672.674 348.703 -672.674 L 548.669 -672.674 C 568.18 -672.674 584.053 -656.8 584.053 -637.29 L 584.053 -121.467 C 584.053 -101.956 568.18 -86.083 548.669 -86.083 L 548.669 -86.083 Z" fill="#fff" stroke-width="0"/>
      <path d="M 479.925 -639.121 L 416.29 -639.121 C 408.954 -639.121 402.985 -645.09 402.985 -652.427 C 402.985 -659.763 408.954 -665.732 416.29 -665.732 L 479.925 -665.732 C 487.261 -665.732 493.23 -659.763 493.23 -652.427 C 493.23 -645.09 487.261 -639.121 479.925 -639.121 Z" fill="#2f2e41" stroke-width="0"/>
      <rect x="455.617" y="-242.97" width="74.97" height="29.202" rx="4.645" ry="4.645" fill="#fff" stroke-width="0"/>
      <path d="M 525.564 -212.957 L 460.641 -212.957 C 457.424 -212.957 454.806 -215.575 454.806 -218.792 L 454.806 -237.947 C 454.806 -241.164 457.424 -243.781 460.641 -243.781 L 525.564 -243.781 C 528.782 -243.781 531.399 -241.164 531.399 -237.947 L 531.399 -218.792 C 531.399 -215.574 528.782 -212.957 525.564 -212.957 Z" fill="#6c63ff" stroke-width="0"/>
      <rect x="357.372" y="-242.97" width="74.97" height="29.202" rx="4.645" ry="4.645" fill="#fff" stroke="#090814" stroke-miterlimit="10" stroke-width="1.5"/>
      <path d="M 427.319 -212.957 L 362.395 -212.957 C 359.178 -212.957 356.561 -215.575 356.561 -218.792 L 356.561 -237.947 C 356.561 -241.164 359.178 -243.781 362.395 -243.781 L 427.319 -243.781 C 430.536 -243.781 433.153 -241.164 433.153 -237.947 L 433.153 -218.792 C 433.153 -215.574 430.536 -212.957 427.319 -212.957 Z" fill="#dcdcdc" stroke-width="0"/>
      <rect x="359.838" y="-529.151" width="170.362" height="170.362" rx="11.538" ry="11.538" fill="#dcdcdc" stroke-width="0"/>
      <path d="M 508.219 -437.153 C 508.219 -416.749 494.797 -399.481 476.297 -393.673 L 474.239 -380.096 L 472.701 -369.885 L 471.028 -358.789 L 439.471 -358.789 L 427.721 -368.577 L 422.567 -372.865 C 422.567 -372.865 424.606 -375.48 427.317 -379.654 L 427.336 -379.654 C 428.971 -382.173 430.875 -385.269 432.682 -388.73 C 434.259 -391.673 435.798 -394.884 437.105 -398.191 C 437.221 -398.519 437.355 -398.846 437.471 -399.173 C 425.183 -407.326 417.067 -421.287 417.067 -437.153 C 417.067 -462.325 437.471 -482.729 462.643 -482.729 C 481.162 -482.729 497.123 -471.672 504.239 -455.806 C 506.796 -450.113 508.219 -443.806 508.219 -437.153 Z" fill="#f0a0a3" stroke-width="0"/>
      <path d="M 438.736 -397.777 C 438.736 -397.777 430.045 -441.745 442.606 -436.512 C 455.166 -431.278 451.805 -422.431 451.805 -422.431 L 463.842 -440.225 L 463.842 -460.635 C 463.842 -460.635 471.692 -469.532 471.692 -469.532 L 505.186 -455.402 C 505.186 -455.402 522.979 -507.736 472.215 -490.989 C 472.215 -490.989 428.778 -508.783 416.218 -477.905 C 386.44 -408.349 438.736 -397.777 438.736 -397.777 L 438.736 -397.777 Z" fill="#2f2e43" stroke-width="0"/>
      <path d="M 491.066 -358.789 L 406.548 -358.789 L 424.817 -377.461 C 425.606 -378.269 426.432 -378.981 427.317 -379.654 L 427.336 -379.654 C 433.971 -384.634 442.971 -385.462 450.49 -381.519 L 472.701 -369.885 L 490.854 -360.365 L 491.066 -358.789 Z" fill="#2f2e43" stroke-width="0"/>
      <path d="M 495.739 -358.789 L 465.989 -358.789 C 460.355 -362.327 454.047 -366.25 447.605 -370.192 C 445.298 -371.596 442.778 -372.23 440.144 -372.23 C 436.221 -372.23 431.99 -370.846 427.721 -368.577 C 423.106 -366.116 418.433 -362.635 414.01 -358.789 L 378.433 -358.789 L 379.26 -360.365 L 376.914 -364.789 C 372.261 -373.597 380.279 -383.172 393.472 -384.557 L 432.682 -388.73 L 440.336 -389.538 C 453.259 -390.904 466.182 -387.288 474.239 -380.096 C 474.355 -379.999 474.47 -379.884 474.585 -379.788 L 493.585 -362.308 C 494.739 -361.25 495.45 -360.039 495.739 -358.789 Z" fill="#6c63ff" stroke-width="0"/>
    </g>
  </g>
</svg>