<?xml version="1.0" standalone="no"?>
<!DOCTYPE svg PUBLIC "-//W3C//DTD SVG 20010904//EN"
 "http://www.w3.org/TR/2001/REC-SVG-20010904/DTD/svg10.dtd">
<svg version="1.0" xmlns="http://www.w3.org/2000/svg"
 width="2048.000000pt" height="2048.000000pt" viewBox="0 0 2048.000000 2048.000000"
 preserveAspectRatio="xMidYMid meet">

<g transform="translate(0.000000,2048.000000) scale(0.100000,-0.100000)"
fill="#000000" stroke="none">
<path d="M9865 20474 c-33 -2 -145 -8 -250 -14 -1331 -75 -2682 -435 -3910
-1040 -2279 -1124 -4056 -3057 -4990 -5425 -396 -1004 -618 -1998 -697 -3125
-16 -228 -16 -1032 0 -1260 100 -1414 437 -2677 1042 -3905 994 -2015 2630
-3651 4645 -4645 1228 -605 2491 -942 3905 -1042 228 -16 1032 -16 1260 0
1414 100 2677 437 3905 1042 2279 1124 4056 3057 4990 5425 396 1004 618 1998
697 3125 16 228 16 1032 0 1260 -100 1414 -437 2677 -1042 3905 -994 2015
-2630 3651 -4645 4645 -1221 602 -2501 945 -3885 1040 -153 11 -908 21 -1025
14z m495 -5204 c1912 -90 3373 -871 4208 -2249 486 -802 734 -1824 709 -2916
-21 -876 -192 -1626 -527 -2310 -426 -870 -1114 -1561 -1992 -2001 -554 -278
-1185 -461 -1868 -543 -373 -45 -315 -44 -2772 -48 l-2358 -4 0 5041 0 5040
2193 0 c1324 0 2277 -4 2407 -10z"/>
<path d="M8500 10239 l0 -2711 888 5 c943 5 952 5 1224 57 280 53 586 172 813
315 725 456 1114 1270 1115 2332 0 1040 -367 1838 -1060 2304 -210 141 -483
259 -755 324 -315 77 -449 85 -1437 85 l-788 0 0 -2711z"/>
</g>
</svg>
